 http://img810.imageshack.us/img810/7315/ageheaqnhxg.jpg

Country.......: United Kingdom
Genre.........: War
Date release..: 20.05.2011 [World]
Director......: Adrian Vitoria
Writers.......: Adrian Vitoria, Ed Scates
Duration......: 90 min.
More..........: http://www.imdb.com/title/tt1590950
Trailer.......: http://www.imdb.com/video/imdb/vi890019097
Trailer.......:

Pilot :
The true story of the formation of Ian Fleming's 30 Commando unit, a precursor for the elite forces in the U.K. 

Cats :
Sean Bean   	 ...  	Jones
Izabella Miko 	... 	Jensen
Danny Dyer 	... 	Rains
James D Arcy 	... 	Ian Fleming
Sebastian Street 	... 	Colonel Archer
William Houston 	... 	Mac
Daniel Brocklebank 	... 	RMP Sergeant Hamilton
John Dagleish 	... 	Roger Rollright
Aksel Hennie 	... 	Steinar
Guy Burnet 	... 	Riley
Stephen Walters 	... 	Brightling
Rosie Fellner 	... 	Sophie Holbrook
Jay Simpson 	... 	RMP Company Sergeant Major
David Gwillim 	... 	SS Mountain Troops
Theo Barklem Biggs 	... 	Jimmy 

Data Technical :
!!! SAMPLE !!!
Audio.....: English
Subtitles.: None
Format                           : AVI
Format/Info                      : Audio Video Interleave
File size                        : 1.58 GiB
Duration                         : 1h 29mn
Overall bit rate                 : 2 524 Kbps
Writing library                  : VirtualDub build 32706/release
Video
ID                               : 0
Format                           : MPEG-4 Visual
Format profile                   : Advanced Simple@L5
Format settings, BVOP            : Yes
Format settings, QPel            : No
Format settings, GMC             : No warppoints
Format settings, Matrix          : Default (MPEG)
Muxing mode                      : Packed bitstream
Codec ID                         : XVID
Codec ID/Hint                    : XviD
Duration                         : 1h 29mn
Bit rate                         : 2 066 Kbps
Width                            : 720 pixels
Height                           : 304 pixels
Display aspect ratio             : 2.35:1
Frame rate                       : 25.000 fps
Color space                      : YUV
Chroma subsampling               : 4:2:0
Bit depth                        : 8 bits
Scan type                        : Progressive
Bits/(Pixel*Frame)               : 0.378
Stream size                      : 1.30 GiB (82%)
Writing library                  : XviD 61
Audio
ID                               : 1
Format                           : AC-3
Format/Info                      : Audio Coding 3
Mode extension                   : CM (complete main)
Codec ID                         : 2000
Duration                         : 1h 29mn
Bit rate mode                    : Constant
Bit rate                         : 448 Kbps
Channel(s)                       : 6 channels
Channel positions                : Front: L C R, Side: L R, LFE
Sampling rate                    : 48.0 KHz
Bit depth                        : 16 bits
Stream size                      : 288 MiB (18%)
Alignment                        : Aligned on interleaves
Interleave, duration             : 40 ms (1.00 video frame)

Screen : 
http://img52.imageshack.us/img52/6774/ageofheroes2011s1.jpg 
http://img714.imageshack.us/img714/9373/ageofheroes2011s2.jpg 
http://img135.imageshack.us/img135/2120/ageofheroes2011s3.jpg 
http://img687.imageshack.us/img687/9232/ageofheroes2011s4.jpg 
http://img811.imageshack.us/img811/8403/ageofheroes2011s5.jpg